<svg width="800" height="800" viewBox="0 0 800 800" fill="none" xmlns="http://www.w3.org/2000/svg">
<g clip-path="url(#clip0_5_2)">
<path d="M717.46 646.913C717.46 665.624 710.028 683.567 696.798 696.798C683.568 710.028 665.624 717.46 646.914 717.46H153.086C134.376 717.46 116.432 710.028 103.202 696.798C89.9723 683.567 82.5397 665.624 82.5397 646.913V153.086C82.5397 134.376 89.9723 116.432 103.202 103.202C116.432 89.9721 134.376 82.5396 153.086 82.5396H646.914C665.624 82.5396 683.568 89.9721 696.798 103.202C710.028 116.432 717.46 134.376 717.46 153.086V646.913Z" fill="#FFCF24" stroke="#FFE01A" stroke-width="17.6367"/>
<path d="M508.025 252.769C508.025 274.092 493.809 293.228 471.411 293.228C448.995 293.228 431.481 276.825 398.66 276.825C375.15 276.825 353.827 289.4 353.827 312.381C353.827 368.695 536.49 332.61 536.49 473.686C536.49 551.887 471.958 600.547 396.49 600.547C354.374 600.547 263.615 590.706 263.615 539.295C263.615 517.972 277.831 500.476 300.247 500.476C325.944 500.476 356.561 521.799 392.116 521.799C428.201 521.799 447.901 501.57 447.901 474.762C447.901 410.247 265.256 449.065 265.256 322.205C265.256 245.644 328.13 198.078 400.864 198.078C431.481 198.095 508.025 209.577 508.025 252.769Z" fill="#1E1E1E" stroke="#FFE01A" stroke-width="17.6367"/>
</g>
<defs>
<clipPath id="clip0_5_2">
<rect width="800" height="800" fill="white"/>
</clipPath>
</defs>
</svg>
